<svg id="Layer_1" data-name="Layer 1" xmlns="http://www.w3.org/2000/svg" viewBox="0 0 383 395"><defs><style>.cls-1{fill:#ebe8de;}.cls-2{fill:red;}.cls-3{font-size:50.15px;font-family:RobotoCondensed-Bold, Roboto Condensed;font-weight:700;letter-spacing:0.2em;}</style></defs><title>garage-buy</title><rect class="cls-1" width="383" height="395"/><path class="cls-2" d="M759.19,340.12,729,336l-14.79-26a22.81,22.81,0,0,0-19.54-11.38H655.2A22.62,22.62,0,0,0,634,313.44l-8,22.09-20.05,4.25A4.92,4.92,0,0,0,602,344.7v28.72a4.93,4.93,0,0,0,4.93,4.93h11.9a22.33,22.33,0,0,0,44.52,0h38.57a22.33,22.33,0,0,0,44.52,0h11.89a4.93,4.93,0,0,0,4.93-4.93V345A4.68,4.68,0,0,0,759.19,340.12ZM641.1,388.38a11.73,11.73,0,1,1,11.72-11.73A11.75,11.75,0,0,1,641.1,388.38Zm1.19-53a1.09,1.09,0,0,1-1-1.36L647,318.37a8.43,8.43,0,0,1,8-5.61h7a1,1,0,0,1,1,.85l1.87,20.73a1,1,0,0,1-1,1Zm37-.85-1.87-20.73a1,1,0,0,1,1-1h16.14A8.86,8.86,0,0,1,702.1,317l9.69,16.82a1.06,1.06,0,0,1-.85,1.53H680.18A.8.8,0,0,1,679.33,334.51Zm45,53.87a11.73,11.73,0,1,1,11.72-11.73A11.74,11.74,0,0,1,724.36,388.38Z" transform="translate(-491 -186)"/><path class="cls-2" d="M649.08,286.59A17.51,17.51,0,0,0,665.57,275h5.6c.17,0,.51.17.68.17l3.23,2.88a.64.64,0,0,0,1,0l4.76-4.24a.64.64,0,0,1,1,0l4.76,4.24a.64.64,0,0,0,1,0l4.75-4.24a.64.64,0,0,1,1,0l4.76,4.24a.64.64,0,0,0,1,0l3.23-2.88c.17-.17.34-.17.68-.17H707a1.3,1.3,0,0,0,.85-.34l4.08-5.1a1,1,0,0,0,0-1.36l-4.08-5.1a1.3,1.3,0,0,0-.85-.34H665.57a17.66,17.66,0,0,0-34.16,6.29A17.52,17.52,0,0,0,649.08,286.59ZM642.29,265a3.91,3.91,0,1,1-3.91,3.91A3.85,3.85,0,0,1,642.29,265Z" transform="translate(-491 -186)"/><text class="cls-3" transform="translate(133.91 318.54)">BUY</text></svg>